<?xml version="1.0" standalone="no"?>
<!DOCTYPE svg PUBLIC "-//W3C//DTD SVG 20010904//EN"
 "http://www.w3.org/TR/2001/REC-SVG-20010904/DTD/svg10.dtd">
<svg version="1.0" xmlns="http://www.w3.org/2000/svg"
 width="63.000000pt" height="54.000000pt" viewBox="0 0 63.000000 54.000000"
 preserveAspectRatio="xMidYMid meet">

<g transform="translate(0.000000,54.000000) scale(0.100000,-0.100000)"
fill="#000000" stroke="none">
<path d="M105 528 c-32 -17 -76 -61 -91 -90 -20 -38 -17 -102 5 -139 25 -40
281 -299 296 -299 15 0 271 259 296 299 59 97 -28 241 -146 241 -37 0 -79 -18
-127 -53 l-28 -21 -22 21 c-54 49 -136 67 -183 41z m125 -43 c15 -8 40 -29 54
-47 l25 -33 38 36 c49 47 73 59 121 59 89 0 151 -107 108 -188 -8 -15 -71 -83
-139 -151 l-125 -124 -124 128 c-67 70 -129 139 -137 153 -8 16 -11 42 -8 71
10 89 105 138 187 96z"/>
</g>
</svg>
