<svg width="15" height="14" viewBox="0 0 15 14" fill="none" xmlns="http://www.w3.org/2000/svg">
<path fill-rule="evenodd" clip-rule="evenodd" d="M13.8198 6.98247C15.4679 5.28174 15.3713 2.46574 13.533 0.896744C11.9726 -0.433023 9.67259 -0.236591 8.19312 1.17349C8.15167 1.21299 8.11087 1.25345 8.07075 1.29485L7.49408 1.88908L6.91742 1.29485C6.87733 1.25341 6.83657 1.21292 6.79515 1.17338C5.31822 -0.236601 3.01557 -0.432988 1.4552 0.896744C-0.383109 2.46574 -0.479707 5.28174 1.1654 6.98247L6.8296 12.8311C7.1955 13.2087 7.78973 13.2087 8.15564 12.8311L13.8198 6.98247ZM13.1015 6.28677C14.3535 4.99472 14.2768 2.84694 12.8844 1.65786C11.7284 0.672852 9.93801 0.80507 8.78838 1.99127L7.49408 3.32499L6.19863 1.99009C5.05266 0.805298 3.26053 0.672497 2.10421 1.65752C0.7113 2.84655 0.634375 4.99494 1.88416 6.28721L7.49262 12.0783L13.1015 6.28677Z" fill="black"/>
</svg>
