<svg width="13" height="15" viewBox="0 0 13 15" fill="none" xmlns="http://www.w3.org/2000/svg">
<path fill-rule="evenodd" clip-rule="evenodd" d="M30.1286 13.3213C30.1115 13.307 30.0721 13.2742 30.0116 13.2255C29.8831 13.1218 29.6634 12.9488 29.3655 12.7292C28.762 12.2844 27.8812 11.6808 26.8243 11.0827C24.5238 9.78084 22.2588 9 20.514 9C18.2891 9 15.1773 9.83393 12.8483 11.7805C10.8753 13.4296 8.83742 16.3638 9.01012 22.2354C9.06188 23.9952 10.1024 27.1398 12.9784 31.5619C15.7096 35.7614 19.487 40.1921 23.5428 44.3083C27.5762 48.4019 31.6821 51.9796 34.9086 54.4822C35.461 54.9106 35.9742 55.2971 36.445 55.6417C36.8772 55.316 37.3459 54.9531 37.8487 54.5528C40.98 52.0597 44.9641 48.4898 48.8788 44.401C52.8137 40.291 56.4799 35.8633 59.133 31.6627C61.9191 27.2514 62.9594 24.0691 63.0133 22.2354C63.186 16.3638 61.1481 13.4296 59.1751 11.7805C56.8462 9.83393 53.7343 9 51.5094 9C49.7624 9 47.49 9.7823 45.1804 11.0866C44.1195 11.6858 43.235 12.2904 42.6286 12.7361C42.3293 12.9561 42.1084 13.1295 41.979 13.2336C41.9177 13.2829 41.8777 13.316 41.8606 13.3303L41.8582 13.3323L35.9905 18.4112L30.1286 13.3213ZM36.4998 66C39.9998 66 71.5094 39.5 72.0094 22.5C72.5094 5.5 59.5094 0 51.5094 0C43.5094 0 35.9998 6.5 35.9998 6.5C35.9998 6.5 28.514 0 20.514 0C12.514 0 -0.485991 5.5 0.0140087 22.5C0.514009 39.5 32.9998 66 36.4998 66Z" fill="black"/>
</svg>
